<mxfile host="Electron" modified="2023-10-30T09:38:05.757Z" agent="Mozilla/5.0 (Macintosh; Intel Mac OS X 10_15_7) AppleWebKit/537.36 (KHTML, like Gecko) draw.io/22.0.2 Chrome/114.0.5735.289 Electron/25.8.4 Safari/537.36" etag="t45UD6cy35edSjXafyN0" version="22.0.2" type="device">
  <diagram name="Page-1" id="iD1dirgDJp3UqND2NQ3k">
    <mxGraphModel dx="1730" dy="674" grid="1" gridSize="10" guides="1" tooltips="1" connect="1" arrows="1" fold="1" page="1" pageScale="1" pageWidth="827" pageHeight="1169" background="#ffffff" math="0" shadow="0">
      <root>
        <mxCell id="0" />
        <mxCell id="1" parent="0" />
        <mxCell id="8UzqxvXjpZ0mwTvlDuum-4" value="AWS Cloud" style="points=[[0,0],[0.25,0],[0.5,0],[0.75,0],[1,0],[1,0.25],[1,0.5],[1,0.75],[1,1],[0.75,1],[0.5,1],[0.25,1],[0,1],[0,0.75],[0,0.5],[0,0.25]];outlineConnect=0;gradientColor=none;html=1;whiteSpace=wrap;fontSize=12;fontStyle=0;container=0;pointerEvents=0;collapsible=0;recursiveResize=0;shape=mxgraph.aws4.group;grIcon=mxgraph.aws4.group_aws_cloud_alt;strokeColor=#232F3E;fillColor=none;verticalAlign=top;align=left;spacingLeft=30;fontColor=#232F3E;dashed=0;" parent="1" vertex="1">
          <mxGeometry x="120" y="270" width="660" height="320" as="geometry" />
        </mxCell>
        <mxCell id="8UzqxvXjpZ0mwTvlDuum-13" style="edgeStyle=orthogonalEdgeStyle;rounded=0;orthogonalLoop=1;jettySize=auto;html=1;entryX=0;entryY=0.5;entryDx=0;entryDy=0;entryPerimeter=0;" parent="1" source="8UzqxvXjpZ0mwTvlDuum-12" target="8UzqxvXjpZ0mwTvlDuum-2" edge="1">
          <mxGeometry relative="1" as="geometry" />
        </mxCell>
        <mxCell id="8UzqxvXjpZ0mwTvlDuum-12" value="BI Analysts" style="sketch=0;outlineConnect=0;fontColor=#232F3E;gradientColor=none;fillColor=#232F3D;strokeColor=none;dashed=0;verticalLabelPosition=bottom;verticalAlign=top;align=center;html=1;fontSize=12;fontStyle=0;aspect=fixed;pointerEvents=1;shape=mxgraph.aws4.users;" parent="1" vertex="1">
          <mxGeometry x="-70" y="400" width="80" height="80" as="geometry" />
        </mxCell>
        <mxCell id="8UzqxvXjpZ0mwTvlDuum-5" style="edgeStyle=orthogonalEdgeStyle;rounded=0;orthogonalLoop=1;jettySize=auto;html=1;entryX=0;entryY=0.5;entryDx=0;entryDy=0;entryPerimeter=0;exitX=0.5;exitY=0;exitDx=0;exitDy=0;exitPerimeter=0;" parent="1" source="8UzqxvXjpZ0mwTvlDuum-2" target="8UzqxvXjpZ0mwTvlDuum-1" edge="1">
          <mxGeometry relative="1" as="geometry" />
        </mxCell>
        <mxCell id="8UzqxvXjpZ0mwTvlDuum-6" value="Retrieve available data sources&lt;br style=&quot;font-size: 12px;&quot;&gt;and schemas" style="edgeLabel;html=1;align=left;verticalAlign=middle;resizable=0;points=[];fontSize=12;labelBackgroundColor=none;" parent="8UzqxvXjpZ0mwTvlDuum-5" vertex="1" connectable="0">
          <mxGeometry x="0.1167" y="-2" relative="1" as="geometry">
            <mxPoint x="-31" y="-22" as="offset" />
          </mxGeometry>
        </mxCell>
        <mxCell id="8UzqxvXjpZ0mwTvlDuum-8" style="edgeStyle=orthogonalEdgeStyle;rounded=0;orthogonalLoop=1;jettySize=auto;html=1;exitX=1;exitY=0.5;exitDx=0;exitDy=0;exitPerimeter=0;entryX=0;entryY=0.5;entryDx=0;entryDy=0;entryPerimeter=0;" parent="1" source="8UzqxvXjpZ0mwTvlDuum-2" target="8UzqxvXjpZ0mwTvlDuum-7" edge="1">
          <mxGeometry relative="1" as="geometry" />
        </mxCell>
        <mxCell id="8UzqxvXjpZ0mwTvlDuum-9" value="Create query based on prompt&lt;br style=&quot;font-size: 12px;&quot;&gt;and context (database schema)" style="edgeLabel;html=1;align=left;verticalAlign=middle;resizable=0;points=[];fontSize=12;" parent="8UzqxvXjpZ0mwTvlDuum-8" vertex="1" connectable="0">
          <mxGeometry x="-0.2488" y="1" relative="1" as="geometry">
            <mxPoint x="-28" y="-19" as="offset" />
          </mxGeometry>
        </mxCell>
        <mxCell id="8UzqxvXjpZ0mwTvlDuum-10" style="edgeStyle=orthogonalEdgeStyle;rounded=0;orthogonalLoop=1;jettySize=auto;html=1;exitX=0.5;exitY=1;exitDx=0;exitDy=0;exitPerimeter=0;entryX=0;entryY=0.5;entryDx=0;entryDy=0;entryPerimeter=0;fontSize=12;" parent="1" source="8UzqxvXjpZ0mwTvlDuum-2" target="8UzqxvXjpZ0mwTvlDuum-3" edge="1">
          <mxGeometry relative="1" as="geometry" />
        </mxCell>
        <mxCell id="8UzqxvXjpZ0mwTvlDuum-11" value="Execute query&lt;br style=&quot;font-size: 12px;&quot;&gt;generated by Bedrock" style="edgeLabel;html=1;align=left;verticalAlign=middle;resizable=0;points=[];fontSize=12;labelBackgroundColor=none;" parent="8UzqxvXjpZ0mwTvlDuum-10" vertex="1" connectable="0">
          <mxGeometry x="-0.0479" y="2" relative="1" as="geometry">
            <mxPoint x="13" y="-18" as="offset" />
          </mxGeometry>
        </mxCell>
        <mxCell id="8UzqxvXjpZ0mwTvlDuum-2" value="Orchestrator&lt;br&gt;(AWS AppRunner)" style="sketch=0;points=[[0,0,0],[0.25,0,0],[0.5,0,0],[0.75,0,0],[1,0,0],[0,1,0],[0.25,1,0],[0.5,1,0],[0.75,1,0],[1,1,0],[0,0.25,0],[0,0.5,0],[0,0.75,0],[1,0.25,0],[1,0.5,0],[1,0.75,0]];outlineConnect=0;fontColor=#232F3E;gradientColor=#F78E04;gradientDirection=north;fillColor=#D05C17;strokeColor=#ffffff;dashed=0;verticalLabelPosition=bottom;verticalAlign=top;align=center;html=1;fontSize=12;fontStyle=0;aspect=fixed;shape=mxgraph.aws4.resourceIcon;resIcon=mxgraph.aws4.app_runner;labelBackgroundColor=default;" parent="1" vertex="1">
          <mxGeometry x="240" y="410" width="60" height="60" as="geometry" />
        </mxCell>
        <mxCell id="8UzqxvXjpZ0mwTvlDuum-1" value="Amazon DynamoDB" style="sketch=0;points=[[0,0,0],[0.25,0,0],[0.5,0,0],[0.75,0,0],[1,0,0],[0,1,0],[0.25,1,0],[0.5,1,0],[0.75,1,0],[1,1,0],[0,0.25,0],[0,0.5,0],[0,0.75,0],[1,0.25,0],[1,0.5,0],[1,0.75,0]];outlineConnect=0;fontColor=#232F3E;gradientColor=#4D72F3;gradientDirection=north;fillColor=#3334B9;strokeColor=#ffffff;dashed=0;verticalLabelPosition=middle;verticalAlign=middle;align=left;html=1;fontSize=12;fontStyle=0;aspect=fixed;shape=mxgraph.aws4.resourceIcon;resIcon=mxgraph.aws4.dynamodb;labelPosition=right;spacing=8;" parent="1" vertex="1">
          <mxGeometry x="560" y="310" width="60" height="60" as="geometry" />
        </mxCell>
        <mxCell id="8UzqxvXjpZ0mwTvlDuum-3" value="" style="sketch=0;points=[[0,0,0],[0.25,0,0],[0.5,0,0],[0.75,0,0],[1,0,0],[0,1,0],[0.25,1,0],[0.5,1,0],[0.75,1,0],[1,1,0],[0,0.25,0],[0,0.5,0],[0,0.75,0],[1,0.25,0],[1,0.5,0],[1,0.75,0]];outlineConnect=0;fontColor=#232F3E;gradientColor=#4D72F3;gradientDirection=north;fillColor=#3334B9;strokeColor=#ffffff;dashed=0;verticalLabelPosition=bottom;verticalAlign=top;align=center;html=1;fontSize=12;fontStyle=0;aspect=fixed;shape=mxgraph.aws4.resourceIcon;resIcon=mxgraph.aws4.rds;" parent="1" vertex="1">
          <mxGeometry x="530" y="510" width="60" height="60" as="geometry" />
        </mxCell>
        <mxCell id="8UzqxvXjpZ0mwTvlDuum-7" value="Amazon Bedrock" style="sketch=0;points=[[0,0,0],[0.25,0,0],[0.5,0,0],[0.75,0,0],[1,0,0],[0,1,0],[0.25,1,0],[0.5,1,0],[0.75,1,0],[1,1,0],[0,0.25,0],[0,0.5,0],[0,0.75,0],[1,0.25,0],[1,0.5,0],[1,0.75,0]];outlineConnect=0;fontColor=#232F3E;gradientColor=#4AB29A;gradientDirection=north;fillColor=#116D5B;strokeColor=#ffffff;dashed=0;verticalLabelPosition=middle;verticalAlign=middle;align=left;html=1;fontSize=12;fontStyle=0;aspect=fixed;shape=mxgraph.aws4.resourceIcon;resIcon=mxgraph.aws4.sagemaker;labelPosition=right;spacing=8;" parent="1" vertex="1">
          <mxGeometry x="560" y="410" width="60" height="60" as="geometry" />
        </mxCell>
        <mxCell id="8jQfa3PnQYNK_E76o58W-2" value="1" style="ellipse;whiteSpace=wrap;html=1;aspect=fixed;fontStyle=1" vertex="1" parent="1">
          <mxGeometry x="340" y="310" width="20" height="20" as="geometry" />
        </mxCell>
        <mxCell id="8jQfa3PnQYNK_E76o58W-3" value="2" style="ellipse;whiteSpace=wrap;html=1;aspect=fixed;fontStyle=1" vertex="1" parent="1">
          <mxGeometry x="340" y="410" width="20" height="20" as="geometry" />
        </mxCell>
        <mxCell id="8jQfa3PnQYNK_E76o58W-4" value="3" style="ellipse;whiteSpace=wrap;html=1;aspect=fixed;fontStyle=1" vertex="1" parent="1">
          <mxGeometry x="340" y="510" width="20" height="20" as="geometry" />
        </mxCell>
        <mxCell id="0Gj_8dRlil-TNpHjtdNA-1" value="" style="outlineConnect=0;fontColor=#232F3E;gradientColor=#945DF2;gradientDirection=north;fillColor=#5A30B5;strokeColor=#ffffff;dashed=0;verticalLabelPosition=bottom;verticalAlign=top;align=center;html=1;fontSize=12;fontStyle=0;aspect=fixed;shape=mxgraph.aws4.resourceIcon;resIcon=mxgraph.aws4.athena;" parent="1" vertex="1">
          <mxGeometry x="600" y="510" width="60" height="60" as="geometry" />
        </mxCell>
        <mxCell id="0Gj_8dRlil-TNpHjtdNA-2" value="" style="outlineConnect=0;fontColor=#232F3E;gradientColor=#4D72F3;gradientDirection=north;fillColor=#3334B9;strokeColor=#ffffff;dashed=0;verticalLabelPosition=bottom;verticalAlign=top;align=center;html=1;fontSize=12;fontStyle=0;aspect=fixed;shape=mxgraph.aws4.resourceIcon;resIcon=mxgraph.aws4.neptune;" parent="1" vertex="1">
          <mxGeometry x="670" y="510" width="60" height="60" as="geometry" />
        </mxCell>
      </root>
    </mxGraphModel>
  </diagram>
</mxfile>
